<svg xmlns="http://www.w3.org/2000/svg" viewBox="0 0 533.5 544.3">
  <path fill="#4285f4" d="M533.5 278.4c0-17.4-1.6-34.1-4.6-50.3H272v95.1h146.9c-6.3 34-25 62.7-53.3 81.9v67h86.2c50.4-46.4 81.7-114.8 81.7-193.7z"/>
  <path fill="#34a853" d="M272 544.3c72.6 0 133.6-24.1 178.1-65.3l-86.2-67c-24 16.1-54.7 25.6-91.9 25.6-70.7 0-130.6-47.7-152-111.6h-89v70.3C74.7 475.3 167.4 544.3 272 544.3z"/>
  <path fill="#fbbc04" d="M120 326c-10.3-30.9-10.3-64.1 0-95l-89-70.3C4.5 214.4 0 243.7 0 272s4.5 57.6 31 111.3l89-70.3z"/>
  <path fill="#ea4335" d="M272 107.7c39.5-.6 77.5 13.9 106.5 40.9l79.3-79.3C411.1 24.6 344.6-1.4 272 0 167.4 0 74.7 69 31 160.7l89 70.3c21.4-63.9 81.3-111.6 152-111.6z"/>
</svg>